<?xml version="1.0" encoding="UTF-8"?>
<svg id="Layer_2" data-name="Layer 2" xmlns="http://www.w3.org/2000/svg" viewBox="0 0 349.5 135.72">
  <defs>
    <style>
      .cls-1 {
        fill: #fff;
      }

      .cls-2 {
        fill: #898b8e;
      }

      .cls-3 {
        fill: #a42328;
      }
    </style>
  </defs>
  <g id="Layer_1-2" data-name="Layer 1">
    <g>
      <path class="cls-1" d="M108.48,135.72c-.25,0-.45-.2-.45-.44V.44c0-.25.2-.44.45-.44s.45.2.45.44v134.83c0,.25-.2.44-.45.44Z"/>
      <g>
        <g>
          <path class="cls-1" d="M245.51,35.13c-1.74.03-3.46-.12-5.26-.18v13.08h-5.01v-30.04c.05-.03.09-.09.14-.09,3.32-.12,6.64-.37,9.97-.3,2.32.05,4.61.3,6.78,1.09,4.08,1.48,5.63,4.34,5.46,8.03-.16,3.57-3.38,6.53-6.44,7.33-.21.05-.43.07-.63.26,3.47,4.53,6.94,9.08,10.43,13.63-.57.16-4.34.21-5.71.08-3.22-4.27-6.46-8.57-9.72-12.89ZM240.26,31.32c.13.12.26.15.4.16,2,.19,4,.24,6,0,.98-.12,1.94-.32,2.85-.68,1.29-.51,2.12-1.39,2.51-2.61.23-.72.29-1.47.27-2.22-.06-1.92-1.13-3.17-3.09-3.82-.23-.08-.47-.14-.7-.2-1.79-.45-3.63-.56-5.47-.53-.92.01-1.86.04-2.78.25v9.66Z"/>
          <path class="cls-1" d="M315.42,38.5v-20.54h4.73v30.48c-.48.09-.94.03-1.47.05-6.25-7.27-12.51-14.55-18.78-21.84-.05.02-.09.03-.14.05v21.33h-4.76v-30.07h2.02c6.06,6.86,12.14,13.74,18.22,20.62.06-.02.12-.05.18-.07Z"/>
          <path class="cls-1" d="M161.25,17.93h1.97c6.07,6.86,12.16,13.76,18.25,20.65.04-.01.09-.03.13-.04v-20.57h4.77v30.5c-.49.06-.97.04-1.49,0-6.24-7.26-12.49-14.53-18.86-21.94v21.49h-4.77v-30.09Z"/>
          <path class="cls-1" d="M128.02,17.95h4.92c.16.29.09.57.09.83,0,6.46,0,12.93,0,19.39,0,.68.03,1.35.23,2,.66,2.25,2.3,3.67,4.69,4.32,2.19.6,4.41.54,6.55-.23,2.61-.94,3.98-2.72,4.17-5.26.03-.35.02-.7.02-1.05,0-6.39,0-12.78,0-19.17,0-.27-.06-.54.07-.84h4.9c.16.23.09.46.09.67,0,6.69,0,13.38,0,20.07,0,1-.09,1.99-.38,2.96-.91,3.05-3.18,4.94-6.33,6.02-2.59.89-5.3,1.03-8.04.85-1.73-.11-3.43-.39-5.04-1.02-3.73-1.46-5.63-4.07-5.91-7.71-.02-.22-.02-.45-.02-.67,0-6.86,0-13.73,0-20.59,0-.17,0-.35,0-.59Z"/>
          <path class="cls-1" d="M291.18,48.05h-5.55c-.84-2.09-1.68-4.18-2.53-6.3h-13.69c-.88,2.06-1.79,4.17-2.69,6.29h-5.6c4.98-10.21,9.93-20.36,14.87-30.49.47-.06.87-.06,1.38,0,4.58,10.12,9.17,20.27,13.81,30.52ZM270.77,38.65h10.88c-1.73-4.37-3.43-8.69-5.13-13h-.15c-1.86,4.32-3.72,8.63-5.6,13Z"/>
          <path class="cls-1" d="M348.92,17.95c.16.61.03,1.11-.29,1.61-4.98,7.98-9.94,15.98-14.9,23.97-.15.23-.28.48-.47.82h16.23v3.69h-23.03c-.2-.54-.06-1.05.27-1.58,4.93-7.95,9.86-15.9,14.77-23.86.17-.27.41-.52.47-.92h-15.55v-3.72h22.5Z"/>
          <path class="cls-1" d="M230.77,17.95c0,1.19,0,2.32,0,3.44,0,.07,0,.15-.22.26h-17.35v8.33h12.76v3.49h-12.8v14.58h-4.97v-30.09h22.58Z"/>
          <path class="cls-1" d="M194.76,17.95h4.96v30.07h-4.96v-30.07Z"/>
        </g>
        <g>
          <rect class="cls-3" x="18.53" y="37.95" width="21.52" height="58.59" transform="translate(96.54 37.95) rotate(90)"/>
          <rect class="cls-3" x="33.8" y="61.27" width="21.52" height="89.12" transform="translate(150.39 61.27) rotate(90)"/>
          <g>
            <rect class="cls-3" x="53.45" y="3.74" width="21.52" height="49.83" transform="translate(92.86 -35.55) rotate(90)"/>
            <rect class="cls-2" y="17.9" width="21.52" height="21.52"/>
          </g>
        </g>
        <g>
          <path class="cls-1" d="M143.91,83.43h-15.89v-24.72h15.89v1.54h-14.13v10.08h12.13v1.49h-12.13v10.05h14.13v1.56Z"/>
          <path class="cls-1" d="M162.53,83.43h-2.15l-6-8.18-6,8.18h-2.17l6.95-9.17-6.95-8.78h2.17l6,7.79,6-7.79h2.15l-6.9,8.78,6.9,9.17Z"/>
          <path class="cls-1" d="M173.66,83.81c-2.74,0-5.04-.9-6.88-2.69-1.84-1.79-2.79-4.02-2.85-6.68.01-2.65.86-4.87,2.53-6.65,1.68-1.78,3.85-2.67,6.53-2.67s4.85.89,6.49,2.66c1.64,1.77,2.46,4,2.46,6.67l-.05.58h-16.21c.11,2.04.92,3.77,2.41,5.18,1.49,1.41,3.35,2.11,5.57,2.11,1.94,0,3.77-.6,5.49-1.8l1,1.19c-2.09,1.4-4.25,2.1-6.49,2.1ZM180.24,73.67c-.26-2.36-.99-4.15-2.2-5.35-1.21-1.21-2.89-1.81-5.03-1.81s-3.89.69-5.2,2.08c-1.31,1.39-2.02,3.08-2.13,5.08h14.57Z"/>
          <path class="cls-1" d="M194.57,83.81c-2.63,0-4.91-.87-6.85-2.61-1.93-1.74-2.91-3.99-2.93-6.74.05-2.76,1.03-5,2.95-6.73,1.92-1.73,4.2-2.6,6.83-2.6,2.24,0,4.28.69,6.12,2.08l-1,1.2c-1.44-1.2-3.13-1.8-5.08-1.8-2.2,0-4.09.76-5.68,2.28-1.58,1.52-2.37,3.37-2.37,5.57s.79,4.05,2.37,5.57c1.58,1.52,3.47,2.28,5.68,2.28,1.95,0,3.65-.6,5.08-1.8l1,1.2c-1.84,1.4-3.88,2.1-6.12,2.1Z"/>
          <path class="cls-1" d="M211.82,83.82c-2.13,0-3.88-.64-5.24-1.91-1.36-1.27-2.06-2.98-2.1-5.14v-11.28h1.71l.02,11.22c.02,1.74.59,3.11,1.69,4.11,1.11,1,2.53,1.5,4.27,1.5,1.87,0,3.43-.6,4.67-1.8s1.86-2.66,1.86-4.38v-10.64h1.71v17.94h-1.56v-4.13c-1.36,3.02-3.7,4.52-7.03,4.52Z"/>
          <path class="cls-1" d="M234.35,83.79c-1.72-.01-3.18-.53-4.38-1.57-1.2-1.03-1.8-2.43-1.8-4.18v-11.4h-4v-1.42h4v-5l1.71-.61v5.61h6.46v1.42h-6.46v11.4c0,1.27.46,2.3,1.37,3.12.91.81,2.02,1.22,3.3,1.22.67,0,1.26-.05,1.78-.15v1.42c-.7.09-1.36.14-1.98.14Z"/>
          <path class="cls-1" d="M241.67,60.73c-.33,0-.61-.12-.85-.36-.24-.24-.36-.52-.36-.86s.12-.61.36-.85.52-.36.85-.36.62.12.86.36c.23.24.35.52.35.85s-.12.63-.35.86c-.23.24-.52.36-.86.36ZM242.54,83.42h-1.73v-17.93h1.73v17.93Z"/>
          <path class="cls-1" d="M255.23,83.43h-1.68l-7.83-17.94h2.05l6.63,16.35,6.61-16.35h2.07l-7.84,17.94Z"/>
          <path class="cls-1" d="M274.19,83.81c-2.74,0-5.04-.9-6.88-2.69-1.84-1.79-2.79-4.02-2.85-6.68.01-2.65.86-4.87,2.53-6.65,1.68-1.78,3.85-2.67,6.53-2.67s4.85.89,6.49,2.66c1.64,1.77,2.46,4,2.46,6.67l-.05.58h-16.21c.11,2.04.91,3.77,2.41,5.18,1.49,1.41,3.35,2.11,5.57,2.11,1.94,0,3.77-.6,5.49-1.8l1,1.19c-2.09,1.4-4.25,2.1-6.49,2.1ZM280.76,73.67c-.26-2.36-.99-4.15-2.2-5.35-1.21-1.21-2.89-1.81-5.03-1.81s-3.89.69-5.2,2.08c-1.31,1.39-2.02,3.08-2.13,5.08h14.57Z"/>
          <path class="cls-1" d="M143.91,116.59h-15.89v-24.72h15.89v1.54h-14.13v10.08h12.13v1.49h-12.13v10.05h14.13v1.56Z"/>
          <path class="cls-1" d="M155.82,116.94c-2.54,0-4.7-.91-6.49-2.74-1.78-1.82-2.68-4.03-2.68-6.62s.89-4.77,2.68-6.6c1.78-1.82,3.95-2.74,6.49-2.74,3.45,0,6.07,1.69,7.86,5.07v-11.47h1.73v24.7h-1.56v-4.96c-1.78,3.57-4.46,5.35-8.03,5.35ZM156.11,115.45c2.13,0,3.96-.77,5.47-2.3,1.51-1.54,2.27-3.39,2.27-5.56s-.76-4.02-2.27-5.55c-1.51-1.53-3.34-2.3-5.47-2.3s-3.96.77-5.47,2.3c-1.51,1.53-2.27,3.38-2.27,5.55s.76,4.02,2.27,5.56,3.34,2.3,5.47,2.3Z"/>
          <path class="cls-1" d="M178.15,116.98c-2.14,0-3.88-.64-5.24-1.91-1.35-1.27-2.06-2.98-2.1-5.14v-11.28h1.71l.02,11.22c.02,1.74.59,3.11,1.69,4.11,1.11,1,2.53,1.5,4.27,1.5,1.87,0,3.43-.6,4.67-1.8s1.86-2.66,1.86-4.38v-10.64h1.71v17.94h-1.56v-4.13c-1.36,3.02-3.7,4.52-7.03,4.52Z"/>
          <path class="cls-1" d="M200.85,116.96c-2.63,0-4.91-.87-6.85-2.61-1.93-1.74-2.91-3.99-2.93-6.74.05-2.76,1.03-5,2.95-6.73,1.92-1.73,4.2-2.6,6.83-2.6,2.24,0,4.28.69,6.12,2.08l-1,1.2c-1.44-1.2-3.13-1.8-5.08-1.8-2.2,0-4.09.76-5.68,2.28-1.58,1.52-2.37,3.37-2.37,5.57s.79,4.05,2.37,5.57c1.58,1.52,3.47,2.28,5.68,2.28,1.95,0,3.65-.6,5.08-1.8l1,1.2c-1.84,1.4-3.88,2.1-6.12,2.1Z"/>
          <path class="cls-1" d="M216.31,116.94c-1.65,0-3.14-.49-4.48-1.47-1.34-.98-2.01-2.28-2.01-3.91,0-1.72.72-3.01,2.16-3.89,1.44-.87,3.06-1.31,4.85-1.31h6.86v-2.47c0-1.17-.63-2.16-1.9-2.96s-2.68-1.19-4.24-1.19c-1,0-1.97.14-2.9.43-.93.29-1.76.8-2.49,1.55l-1.1-1.08c.84-.84,1.84-1.44,3.02-1.82,1.17-.38,2.32-.57,3.44-.57,1.84,0,3.61.46,5.32,1.37s2.56,2.32,2.56,4.22v12.72h-1.54v-3.2c-1.44,2.38-3.95,3.58-7.56,3.58ZM217.02,115.57c1.75,0,3.3-.45,4.65-1.36,1.35-.91,2.02-1.86,2.02-2.85v-3.66h-6.85c-1.32,0-2.54.29-3.65.87s-1.67,1.55-1.67,2.91.57,2.38,1.72,3.07c1.15.69,2.4,1.03,3.77,1.03Z"/>
          <path class="cls-1" d="M238.21,116.94c-1.72-.01-3.18-.53-4.38-1.57-1.2-1.03-1.8-2.43-1.8-4.18v-11.4h-4v-1.42h4v-5l1.71-.61v5.61h6.46v1.42h-6.46v11.4c0,1.27.46,2.3,1.37,3.12.91.81,2.02,1.22,3.3,1.22.67,0,1.26-.05,1.78-.15v1.42c-.7.09-1.36.14-1.98.14Z"/>
          <path class="cls-1" d="M245.53,93.88c-.33,0-.61-.12-.85-.36-.24-.24-.36-.52-.36-.86s.12-.61.36-.85.52-.36.85-.36.62.12.86.36c.23.24.35.52.35.85s-.12.63-.35.86c-.23.24-.52.36-.86.36ZM246.4,116.57h-1.73v-17.93h1.73v17.93Z"/>
          <path class="cls-1" d="M260.27,116.96c-2.6,0-4.82-.91-6.65-2.74-1.83-1.82-2.75-4.03-2.75-6.62s.92-4.77,2.75-6.6c1.84-1.82,4.05-2.74,6.65-2.74s4.8.91,6.63,2.74c1.83,1.82,2.75,4.02,2.75,6.6s-.92,4.79-2.75,6.62c-1.84,1.82-4.05,2.74-6.63,2.74ZM260.27,115.47c2.11,0,3.92-.77,5.42-2.3,1.5-1.54,2.25-3.39,2.25-5.56s-.75-4.02-2.25-5.55c-1.5-1.53-3.31-2.3-5.42-2.3s-3.94.77-5.44,2.3c-1.5,1.53-2.25,3.38-2.25,5.55s.75,4.02,2.25,5.56c1.5,1.54,3.32,2.3,5.44,2.3Z"/>
          <path class="cls-1" d="M290.86,116.59h-1.71l-.02-11.22c-.03-1.73-.64-3.09-1.8-4.1-1.17-1.01-2.62-1.51-4.36-1.51-1.87,0-3.47.6-4.77,1.8-1.31,1.2-1.96,2.66-1.96,4.38v10.64h-1.71v-17.93h1.56v4.12c.58-1.29,1.52-2.36,2.83-3.22,1.31-.86,2.8-1.29,4.46-1.29,2.14,0,3.91.63,5.31,1.9,1.41,1.27,2.13,2.98,2.18,5.15v11.27Z"/>
        </g>
      </g>
    </g>
  </g>
</svg>