<svg xmlns="http://www.w3.org/2000/svg" viewBox="0 0 408.01 112.88"><defs><style>.cls-1{fill:#fff;}</style></defs><g id="Layer_2" data-name="Layer 2"><g id="LOGO"><path class="cls-1" d="M147.45,86.93a10.56,10.56,0,0,1,.84-4.24,10.29,10.29,0,0,1,5.63-5.57,11.19,11.19,0,0,1,8.26,0,10.39,10.39,0,0,1,3.36,2.21,10.47,10.47,0,0,1,3.11,7.6,10.77,10.77,0,0,1-.83,4.25,10.47,10.47,0,0,1-2.28,3.35,10.07,10.07,0,0,1-3.36,2.21,11.19,11.19,0,0,1-8.26,0,10.18,10.18,0,0,1-3.36-2.21,10.29,10.29,0,0,1-2.27-3.35A10.61,10.61,0,0,1,147.45,86.93Zm3.88,0a8.06,8.06,0,0,0,.52,2.95,7.09,7.09,0,0,0,1.41,2.33,6.37,6.37,0,0,0,2.12,1.53,6.54,6.54,0,0,0,7.47-1.53,7.09,7.09,0,0,0,1.41-2.33,8.79,8.79,0,0,0,0-5.9,7,7,0,0,0-1.41-2.32,6.23,6.23,0,0,0-2.13-1.53,6.76,6.76,0,0,0-5.34,0,6.1,6.1,0,0,0-2.12,1.53A7,7,0,0,0,151.85,84,8.13,8.13,0,0,0,151.33,86.93Z"/><path class="cls-1" d="M187.88,97.53h-3.71V90.1a9.45,9.45,0,0,0-.18-1.88,4.36,4.36,0,0,0-.6-1.55,3.08,3.08,0,0,0-1.12-1.06,3.55,3.55,0,0,0-1.74-.39,3.5,3.5,0,0,0-1.74.39,3.16,3.16,0,0,0-1.12,1.06,4.56,4.56,0,0,0-.6,1.55,10.27,10.27,0,0,0-.17,1.88v7.43h-3.71V82.43h3.71v2.38a3.88,3.88,0,0,1,.87-1.33,4,4,0,0,1,.56-.5,4.68,4.68,0,0,1,.73-.43,5.23,5.23,0,0,1,.92-.3,4.87,4.87,0,0,1,1.12-.12,7.69,7.69,0,0,1,3.12.58,5.41,5.41,0,0,1,2.11,1.65,6.83,6.83,0,0,1,1.18,2.52,12.94,12.94,0,0,1,.37,3.22Z"/><path class="cls-1" d="M196.79,97.53h-3.71V75.12h3.71Z"/><path class="cls-1" d="M202,77.92a2,2,0,0,1,.17-.84,2.24,2.24,0,0,1,.46-.7,2.27,2.27,0,0,1,.7-.47,2.16,2.16,0,0,1,1.68,0,2.27,2.27,0,0,1,.7.47,2.08,2.08,0,0,1,.46.7,2,2,0,0,1,.17.84,2,2,0,0,1-.17.84,1.94,1.94,0,0,1-.46.69,2.1,2.1,0,0,1-.7.47,2.16,2.16,0,0,1-1.68,0,2.15,2.15,0,0,1-1.16-1.16A2,2,0,0,1,202,77.92Zm.32,4.51H206v15.1h-3.71Z"/><path class="cls-1" d="M225.93,97.53h-3.71V90.1a9.45,9.45,0,0,0-.18-1.88,4.36,4.36,0,0,0-.6-1.55,3.08,3.08,0,0,0-1.12-1.06,3.55,3.55,0,0,0-1.74-.39,3.5,3.5,0,0,0-1.74.39,3.16,3.16,0,0,0-1.12,1.06,4.35,4.35,0,0,0-.59,1.55A9.45,9.45,0,0,0,215,90.1v7.43h-3.71V82.43H215v2.38a3.88,3.88,0,0,1,.87-1.33,4,4,0,0,1,.56-.5,4.68,4.68,0,0,1,.73-.43,5.23,5.23,0,0,1,.92-.3,4.87,4.87,0,0,1,1.12-.12,7.69,7.69,0,0,1,3.12.58,5.41,5.41,0,0,1,2.11,1.65,6.83,6.83,0,0,1,1.18,2.52,12.94,12.94,0,0,1,.37,3.22Z"/><path class="cls-1" d="M245.68,93.53a8.55,8.55,0,0,1-1.75,2,8.06,8.06,0,0,1-1,.74,8.89,8.89,0,0,1-2.84,1.08,8.73,8.73,0,0,1-1.82.17,8.38,8.38,0,0,1-3.08-.57,8.08,8.08,0,0,1-2.54-1.61,7.47,7.47,0,0,1-1.73-2.49,8.08,8.08,0,0,1,0-6.35A7.47,7.47,0,0,1,232.62,84a8.08,8.08,0,0,1,2.54-1.61,8.39,8.39,0,0,1,3.08-.58,8.53,8.53,0,0,1,2.13.28,7.27,7.27,0,0,1,2,.82A7.49,7.49,0,0,1,244,84.28a7.64,7.64,0,0,1,1.31,1.87,9,9,0,0,1,.77,2.37,11.11,11.11,0,0,1,.13,2.86H234.17a4.32,4.32,0,0,0,.57,1.23,4,4,0,0,0,.9,1,3.87,3.87,0,0,0,1.17.63,4.17,4.17,0,0,0,1.43.23,5.91,5.91,0,0,0,1.43-.14,5.71,5.71,0,0,0,1-.31,3.11,3.11,0,0,0,.74-.46Zm-7.44-8.61a4.3,4.3,0,0,0-1.5.26,3.78,3.78,0,0,0-1.22.7,4,4,0,0,0-.89,1.07,4.47,4.47,0,0,0-.53,1.34h8.28a4.75,4.75,0,0,0-.53-1.34,4.27,4.27,0,0,0-.91-1.07,3.78,3.78,0,0,0-1.22-.7A4.18,4.18,0,0,0,238.24,84.92Z"/><path class="cls-1" d="M168,69a28.16,28.16,0,0,1-9.24-1.34,16.43,16.43,0,0,1-6.4-3.86,15.23,15.23,0,0,1-3.71-6.13,25.94,25.94,0,0,1-1.2-8.19V26.66h12.33V48.52a20.19,20.19,0,0,0,.41,4.32,8.19,8.19,0,0,0,1.37,3.23,6.23,6.23,0,0,0,2.53,2,11.4,11.4,0,0,0,7.81,0,6.26,6.26,0,0,0,2.54-2,8.49,8.49,0,0,0,1.37-3.23,20.85,20.85,0,0,0,.41-4.32V26.66h12.32V49.51a26.23,26.23,0,0,1-1.19,8.19,15.36,15.36,0,0,1-3.72,6.13,16.47,16.47,0,0,1-6.39,3.86A28.24,28.24,0,0,1,168,69Z"/><path class="cls-1" d="M226.9,68.45H215.15V53.79a10.35,10.35,0,0,0-1.26-5.65,4.84,4.84,0,0,0-7.73,0,10.34,10.34,0,0,0-1.27,5.65V68.45H193.15V38h11.74v4a8.3,8.3,0,0,1,2-2.27,8.89,8.89,0,0,1,1.21-.85,10.87,10.87,0,0,1,1.53-.73,11.63,11.63,0,0,1,1.88-.52,11.26,11.26,0,0,1,2.23-.21A14,14,0,0,1,220,38.65a10.7,10.7,0,0,1,4.05,3.47,14.45,14.45,0,0,1,2.18,5.2,30.11,30.11,0,0,1,.66,6.47Z"/><path class="cls-1" d="M230.92,38h11.75V68.45H230.92Zm.15-8.69a5.56,5.56,0,0,1,.45-2.21,5.75,5.75,0,0,1,3-3.05A5.7,5.7,0,0,1,239,24a5.69,5.69,0,0,1,3,3.05,5.7,5.7,0,0,1,0,4.44,5.66,5.66,0,0,1-3,3,5.7,5.7,0,0,1-4.44,0,5.71,5.71,0,0,1-3-3A5.52,5.52,0,0,1,231.07,29.28Z"/><path class="cls-1" d="M272.16,32.58l-1.63-.18-1.59-.12c-.57,0-1.13-.05-1.67-.05a6.33,6.33,0,0,0-2.1.29,2.83,2.83,0,0,0-1.37,1,4.34,4.34,0,0,0-.76,1.78,12.93,12.93,0,0,0-.23,2.7h8.8V46.8h-8.8V68.45H251.06V46.8h-6.12V38h6.12a22.12,22.12,0,0,1,.7-5.69,12.18,12.18,0,0,1,2.32-4.63,11,11,0,0,1,4.25-3.12,16.46,16.46,0,0,1,6.52-1.13,26.72,26.72,0,0,1,2.94.14c.89.1,1.66.2,2.3.29s1.44.28,2,.44Z"/><path class="cls-1" d="M299.67,46.71c-.36-.08-.79-.16-1.28-.23L297,46.3a17.23,17.23,0,0,0-1.85-.09,9,9,0,0,0-2.93.47,6,6,0,0,0-2.36,1.5,7.27,7.27,0,0,0-1.59,2.7,12.37,12.37,0,0,0-.58,4.08V68.45H275.89V38h11.75v4a7.91,7.91,0,0,1,3.28-3.53,9.54,9.54,0,0,1,4.62-1,12.83,12.83,0,0,1,1.53.09q.74.09,1.32.21a9.61,9.61,0,0,1,1.28.29Z"/><path class="cls-1" d="M325.76,64.37a8.38,8.38,0,0,1-2.1,2.33,11.75,11.75,0,0,1-2.94,1.6,12.13,12.13,0,0,1-4.49.73,15.21,15.21,0,0,1-6.09-1.19,13.84,13.84,0,0,1-4.69-3.32,15,15,0,0,1-3-5,19.22,19.22,0,0,1,0-12.59,15.08,15.08,0,0,1,3-5,13.7,13.7,0,0,1,4.69-3.32,15,15,0,0,1,6.09-1.2,12.34,12.34,0,0,1,4.49.73,11.75,11.75,0,0,1,2.94,1.61,8.24,8.24,0,0,1,2.1,2.33V38H337.5V68.45H325.76Zm0-11.16a8.51,8.51,0,0,0-.48-3A6.2,6.2,0,0,0,324,48.07a5.62,5.62,0,0,0-2-1.37,6.67,6.67,0,0,0-5,0,5.67,5.67,0,0,0-2,1.37,6.35,6.35,0,0,0-1.33,2.18,9.37,9.37,0,0,0,0,5.92,6.35,6.35,0,0,0,1.33,2.18,5.67,5.67,0,0,0,2,1.37,6.8,6.8,0,0,0,5,0,5.62,5.62,0,0,0,2-1.37,6.2,6.2,0,0,0,1.33-2.18A8.51,8.51,0,0,0,325.76,53.21Z"/><path class="cls-1" d="M375.28,68.45H363.53V53.79a10.25,10.25,0,0,0-1.27-5.65,4.83,4.83,0,0,0-7.72,0,10.34,10.34,0,0,0-1.27,5.65V68.45H341.53V38h11.74v4a8.3,8.3,0,0,1,2-2.27,8.89,8.89,0,0,1,1.21-.85,10.87,10.87,0,0,1,1.53-.73,11.63,11.63,0,0,1,1.88-.52,11.26,11.26,0,0,1,2.23-.21,13.88,13.88,0,0,1,6.25,1.27,10.62,10.62,0,0,1,4.05,3.47,14.28,14.28,0,0,1,2.19,5.2,30.11,30.11,0,0,1,.66,6.47Z"/><path class="cls-1" d="M378.14,63.41l14-16.61H378.89V38H408v5.1L394,59.62H408v8.83H378.14Z"/><path class="cls-1" d="M56.47,61.75a6,6,0,0,1-6-6V6a6,6,0,1,1,12,0V55.75A6,6,0,0,1,56.47,61.75Z"/><path class="cls-1" d="M25.4,24.09h0V56.31a31.07,31.07,0,0,0,62.14,0V24.09h0V9.27a56.14,56.14,0,0,0-12-6V56.31a19.08,19.08,0,1,1-38.15,0v-53a55.8,55.8,0,0,0-12,6Z"/><path class="cls-1" d="M99.53,19.9V44.11a44.77,44.77,0,1,1-86.13,0V19.9a56.47,56.47,0,1,0,86.13,0Z"/></g></g></svg>